<?xml version="1.0" encoding="UTF-8"?>
<svg version="1.1" xmlns="http://www.w3.org/2000/svg" width="347" height="288">
<path d="M0 0 C49.17 0 98.34 0 149 0 C149 0.66 149 1.32 149 2 C149.7528125 1.96519531 150.505625 1.93039063 151.28125 1.89453125 C159.43173417 1.6868126 166.83044355 2.68845038 174.76171875 4.34375 C177.77600777 5.06620546 177.77600777 5.06620546 180 5 C187.10869823 5.81806448 193.79417068 7.76230195 200.5625 10 C201.36042969 10.26119629 202.15835937 10.52239258 202.98046875 10.79150391 C204.10582031 11.17314697 204.10582031 11.17314697 205.25390625 11.5625 C205.92752197 11.79066406 206.6011377 12.01882813 207.29516602 12.25390625 C209 13 209 13 211 15 C212.66008458 15.68289194 214.32794489 16.3469656 216 17 C226.36416665 22.29202852 241.05661003 31.16983009 245 43 C245 45.33333333 245 47.66666667 245 50 C245.78715124 52.94570927 245.78715124 52.94570927 247 56 C247.21785156 56.76054688 247.43570312 57.52109375 247.66015625 58.3046875 C248.01400391 59.51511719 248.01400391 59.51511719 248.375 60.75 C248.58898437 61.50796875 248.80296875 62.2659375 249.0234375 63.046875 C250.28930782 65.57861564 251.44803303 65.85026223 254 67 C255.70847888 68.34433194 257.37255952 69.7461236 259 71.1875 C259.845625 71.92355469 260.69125 72.65960938 261.5625 73.41796875 C267.21634348 79.40705615 268.62890039 84.26761801 268.671875 92.2734375 C268.6918454 93.5964537 268.6918454 93.5964537 268.71221924 94.94619751 C268.73239592 96.81023893 268.74185564 98.67442371 268.74121094 100.53857422 C268.74987379 103.33426838 268.82230762 106.12340898 268.8984375 108.91796875 C269.04819466 121.00616235 266.88121259 129.67946473 260.98156738 140.20440674 C256.18520162 148.97845751 255.84784982 157.21573381 255.68359375 166.96484375 C255.6524221 168.51480797 255.6524221 168.51480797 255.62062073 170.09608459 C255.55556522 173.37649284 255.49644596 176.65697685 255.4375 179.9375 C255.39427289 182.16992951 255.35065729 184.40235154 255.30664062 186.63476562 C255.19992929 192.08976511 255.09808356 197.54483892 255 203 C255.33 203 255.66 203 256 203 C256.12733194 210.09819266 256.21457392 217.1960881 256.2746582 224.29516602 C256.29971982 226.70738736 256.33377837 229.11953338 256.37719727 231.53149414 C256.43821433 235.00946696 256.4662946 238.48643119 256.48828125 241.96484375 C256.51408768 243.03395493 256.5398941 244.1030661 256.56648254 245.20457458 C256.56913996 252.3845829 255.1118703 257.09663522 251 263 C250.34 263 249.68 263 249 263 C248.6596875 263.8353125 248.6596875 263.8353125 248.3125 264.6875 C243.55678564 273.06661578 232.97869839 279.96169589 224 283 C218.16406477 284.13345527 212.19546972 283.84553571 206.28125 283.71875 C204.60788542 283.70820089 202.93449956 283.7006481 201.2611084 283.69592285 C196.89602085 283.67506663 192.53258431 283.61137766 188.16809082 283.53894043 C184.60032668 283.48686939 181.03267345 283.46506101 177.46460724 283.44481659 C170.08878979 283.40261653 162.71293058 283.34109803 155.33789062 283.22460938 C154.03807251 283.20571655 152.73825439 283.18682373 151.39904785 283.1673584 C148.47520681 283.02339768 145.84057412 282.67621393 143 282 C143 281.34 143 280.68 143 280 C141.6078125 280.0928125 141.6078125 280.0928125 140.1875 280.1875 C135.84520195 280.19623702 132.01798486 278.99368038 127.875 277.7890625 C125.17105699 277.04694771 122.51035823 276.48470576 119.75 276 C118.83089844 275.835 117.91179687 275.67 116.96484375 275.5 C114.92054342 275.15524316 112.8702701 274.84474878 110.81640625 274.5625 C93.87191339 271.84231385 78.06423655 263.8033948 62.91796875 256 C58.48903753 253.72025278 54.00097394 251.5707952 49.5 249.4375 C48.30346802 248.87023193 48.30346802 248.87023193 47.08276367 248.29150391 C41.92907327 245.86568164 36.7336996 243.55955025 31.5 241.3125 C25.10920556 238.55701492 19.04412034 235.44449869 13 232 C11.71977033 231.30021344 10.43843963 230.6024389 9.15625 229.90625 C-3.08983747 223.21574713 -13.84924577 215.63134429 -24 206 C-24.51884766 205.51901855 -25.03769531 205.03803711 -25.57226562 204.54248047 C-34.66598795 196.08189921 -41.28492915 187.46411011 -46.875 176.26953125 C-51.4829032 167.10869222 -56.79934447 160.2763381 -64 153 C-66.44119002 150.40925091 -68.73616399 147.74582189 -71 145 C-71.67264893 144.2376001 -72.34529785 143.4752002 -73.03833008 142.68969727 C-79.85591493 133.99603192 -80.24844592 126.35025226 -80.04296875 115.60913086 C-79.9999697 112.93561598 -80.04273394 110.27280184 -80.09375 107.59960938 C-80.12846306 98.44037322 -79.69658812 91.60297513 -73.41552734 84.42211914 C-72.21984131 83.22317017 -72.21984131 83.22317017 -71 82 C-70.16033691 81.11368896 -69.32067383 80.22737793 -68.45556641 79.31420898 C-65.79188054 76.56895172 -63.06829973 73.90257897 -60.3125 71.25 C-52.22054591 63.42344845 -45.91179871 56.38238511 -41.0625 46.1875 C-36.00176394 35.85476826 -30.36061016 26.8760299 -23 18 C-22.236875 16.96875 -21.47375 15.9375 -20.6875 14.875 C-15.82450671 9.67272811 -9.59188354 4.82715355 -3 2 C-2.34 2 -1.68 2 -1 2 C-0.67 1.34 -0.34 0.68 0 0 Z M254 154 C255 156 255 156 255 156 Z " fill="#F8F8F8" transform="translate(79,3)"/>
<path d="M0 0 C1.32 0 2.64 0 4 0 C4.37640625 0.90878906 4.7528125 1.81757812 5.140625 2.75390625 C7.28706935 6.50116519 9.05458408 7.76345556 12.75 9.9375 C13.31783203 10.27177002 13.88566406 10.60604004 14.47070312 10.95043945 C25.12191511 17.08589685 36.45688061 21.82509353 48 26 C48.73879395 26.268125 49.47758789 26.53625 50.23876953 26.8125 C60.88439199 30.65943596 71.56609503 34.19300392 82.45947266 37.26513672 C85.39368816 38.11387674 88.31103651 39.01190316 91.23046875 39.91015625 C130.62661536 51.84838249 175.49255585 59.98963784 214.0859375 41.5234375 C220.64369639 37.84085218 226.07923309 33.07001088 229 26 C229.41511942 23.80230894 229.76477854 21.59164884 230.0625 19.375 C230.90277778 13.19444444 230.90277778 13.19444444 232 11 C233.65 11.33 235.3 11.66 237 12 C237.27263672 12.90492187 237.27263672 12.90492187 237.55078125 13.828125 C237.80214844 14.62734375 238.05351562 15.4265625 238.3125 16.25 C238.55613281 17.03890625 238.79976563 17.8278125 239.05078125 18.640625 C239.88641882 21.04182641 239.88641882 21.04182641 241.50390625 22.890625 C251.13300476 36.46689966 248.30506575 66.0823977 246.125 81.875 C245.76313717 83.91903598 245.3899468 85.9611353 245 88 C244.90203125 88.79921875 244.8040625 89.5984375 244.703125 90.421875 C243.51352008 98.40922234 238.72761411 105.47634969 232.9296875 110.95703125 C217.25862173 122.37782641 193.55882923 123.14137042 174.89453125 123.203125 C174.22416021 123.20595238 173.55378918 123.20877975 172.86310387 123.21169281 C169.30399574 123.22661294 165.74492727 123.23588341 162.18579102 123.24023438 C159.29340793 123.24458855 156.40132827 123.25837039 153.5090332 123.28125 C105.90811355 123.65004964 64.10903823 114.42582341 28.98046875 80.11328125 C20.52045012 71.48145746 13.48753195 61.59324544 6.82763672 51.54199219 C4.63448326 48.25268786 2.37898412 45.25409779 -0.28125 42.32421875 C-2.62987811 39.64878571 -3.69096492 37.98674622 -3.625 34.3125 C-3.80349525 31.40203583 -3.93853004 30.11176357 -5.375 27.5 C-9.01307585 25.42109951 -12.39802306 25.37006594 -16.5390625 25.17578125 C-19 25 -19 25 -21 24 C-20.87109375 21.67578125 -20.87109375 21.67578125 -20 19 C-17.34765625 17.41796875 -17.34765625 17.41796875 -14.0625 16.1875 C-12.98097656 15.76855469 -11.89945313 15.34960938 -10.78515625 14.91796875 C-8 14 -8 14 -6 14 C-5.81824219 13.40832031 -5.63648438 12.81664063 -5.44921875 12.20703125 C-2.5862069 3.20689655 -2.5862069 3.20689655 0 0 Z " fill="#070707" transform="translate(62,100)"/>
<path d="M0 0 C49.17 0 98.34 0 149 0 C149 0.66 149 1.32 149 2 C149.7528125 1.96519531 150.505625 1.93039063 151.28125 1.89453125 C159.43173417 1.6868126 166.83044355 2.68845038 174.76171875 4.34375 C177.77600777 5.06620546 177.77600777 5.06620546 180 5 C187.10869823 5.81806448 193.79417068 7.76230195 200.5625 10 C201.36042969 10.26119629 202.15835937 10.52239258 202.98046875 10.79150391 C204.10582031 11.17314697 204.10582031 11.17314697 205.25390625 11.5625 C205.92752197 11.79066406 206.6011377 12.01882813 207.29516602 12.25390625 C209 13 209 13 211 15 C212.66008458 15.68289194 214.32794489 16.3469656 216 17 C226.36416665 22.29202852 241.05661003 31.16983009 245 43 C245 45.33333333 245 47.66666667 245 50 C245.78715124 52.94570927 245.78715124 52.94570927 247 56 C247.21785156 56.76054688 247.43570312 57.52109375 247.66015625 58.3046875 C248.01400391 59.51511719 248.01400391 59.51511719 248.375 60.75 C248.58898437 61.50796875 248.80296875 62.2659375 249.0234375 63.046875 C250.28930782 65.57861564 251.44803303 65.85026223 254 67 C255.70847888 68.34433194 257.37255952 69.7461236 259 71.1875 C259.845625 71.92355469 260.69125 72.65960938 261.5625 73.41796875 C267.21634348 79.40705615 268.62890039 84.26761801 268.671875 92.2734375 C268.6918454 93.5964537 268.6918454 93.5964537 268.71221924 94.94619751 C268.73239592 96.81023893 268.74185564 98.67442371 268.74121094 100.53857422 C268.74987379 103.33426838 268.82230762 106.12340898 268.8984375 108.91796875 C269.04819466 121.00616235 266.88121259 129.67946473 260.98156738 140.20440674 C256.18520162 148.97845751 255.84784982 157.21573381 255.68359375 166.96484375 C255.6524221 168.51480797 255.6524221 168.51480797 255.62062073 170.09608459 C255.55556522 173.37649284 255.49644596 176.65697685 255.4375 179.9375 C255.39427289 182.16992951 255.35065729 184.40235154 255.30664062 186.63476562 C255.19992929 192.08976511 255.09808356 197.54483892 255 203 C255.33 203 255.66 203 256 203 C256.12733194 210.09819266 256.21457392 217.1960881 256.2746582 224.29516602 C256.29971982 226.70738736 256.33377837 229.11953338 256.37719727 231.53149414 C256.43821433 235.00946696 256.4662946 238.48643119 256.48828125 241.96484375 C256.51408768 243.03395493 256.5398941 244.1030661 256.56648254 245.20457458 C256.56913996 252.3845829 255.1118703 257.09663522 251 263 C250.34 263 249.68 263 249 263 C248.6596875 263.8353125 248.6596875 263.8353125 248.3125 264.6875 C243.55678564 273.06661578 232.97869839 279.96169589 224 283 C218.16406477 284.13345527 212.19546972 283.84553571 206.28125 283.71875 C204.60788542 283.70820089 202.93449956 283.7006481 201.2611084 283.69592285 C196.89602085 283.67506663 192.53258431 283.61137766 188.16809082 283.53894043 C184.60032668 283.48686939 181.03267345 283.46506101 177.46460724 283.44481659 C170.08878979 283.40261653 162.71293058 283.34109803 155.33789062 283.22460938 C154.03807251 283.20571655 152.73825439 283.18682373 151.39904785 283.1673584 C148.47520681 283.02339768 145.84057412 282.67621393 143 282 C143 281.34 143 280.68 143 280 C141.6078125 280.0928125 141.6078125 280.0928125 140.1875 280.1875 C135.84520195 280.19623702 132.01798486 278.99368038 127.875 277.7890625 C125.17105699 277.04694771 122.51035823 276.48470576 119.75 276 C118.83089844 275.835 117.91179687 275.67 116.96484375 275.5 C114.92054342 275.15524316 112.8702701 274.84474878 110.81640625 274.5625 C93.87191339 271.84231385 78.06423655 263.8033948 62.91796875 256 C58.48903753 253.72025278 54.00097394 251.5707952 49.5 249.4375 C48.30346802 248.87023193 48.30346802 248.87023193 47.08276367 248.29150391 C41.92907327 245.86568164 36.7336996 243.55955025 31.5 241.3125 C25.10920556 238.55701492 19.04412034 235.44449869 13 232 C11.71977033 231.30021344 10.43843963 230.6024389 9.15625 229.90625 C-3.08983747 223.21574713 -13.84924577 215.63134429 -24 206 C-24.51884766 205.51901855 -25.03769531 205.03803711 -25.57226562 204.54248047 C-34.66598795 196.08189921 -41.28492915 187.46411011 -46.875 176.26953125 C-51.4829032 167.10869222 -56.79934447 160.2763381 -64 153 C-66.44119002 150.40925091 -68.73616399 147.74582189 -71 145 C-71.67264893 144.2376001 -72.34529785 143.4752002 -73.03833008 142.68969727 C-79.85591493 133.99603192 -80.24844592 126.35025226 -80.04296875 115.60913086 C-79.9999697 112.93561598 -80.04273394 110.27280184 -80.09375 107.59960938 C-80.12846306 98.44037322 -79.69658812 91.60297513 -73.41552734 84.42211914 C-72.21984131 83.22317017 -72.21984131 83.22317017 -71 82 C-70.16033691 81.11368896 -69.32067383 80.22737793 -68.45556641 79.31420898 C-65.79188054 76.56895172 -63.06829973 73.90257897 -60.3125 71.25 C-52.22054591 63.42344845 -45.91179871 56.38238511 -41.0625 46.1875 C-36.00176394 35.85476826 -30.36061016 26.8760299 -23 18 C-22.236875 16.96875 -21.47375 15.9375 -20.6875 14.875 C-15.82450671 9.67272811 -9.59188354 4.82715355 -3 2 C-2.34 2 -1.68 2 -1 2 C-0.67 1.34 -0.34 0.68 0 0 Z M-18.94140625 28.58984375 C-23.09195351 33.86384742 -26.10551918 39.4342051 -29.0625 45.4375 C-32.6597899 52.55653273 -36.25477178 59.44182289 -40.79296875 66.01171875 C-42.26258129 68.21132601 -42.26258129 68.21132601 -43 72 C-39.37 72.33 -35.74 72.66 -32 73 C-33.2065625 73.13535156 -34.413125 73.27070312 -35.65625 73.41015625 C-48.36630131 75.03400404 -48.36630131 75.03400404 -58 83 C-58.75539063 83.77988281 -59.51078125 84.55976562 -60.2890625 85.36328125 C-68.89136935 94.37188598 -73.43688237 102.19393757 -73.26953125 114.71484375 C-72.33135693 126.14969312 -66.50460353 136.3158881 -58 143.9375 C-51.97766305 148.25203969 -51.97766305 148.25203969 -45 150 C-45 150.66 -45 151.32 -45 152 C-46.65 151.67 -48.3 151.34 -50 151 C-48.67465806 153.84584068 -47.16808065 156.18427108 -45.2109375 158.6328125 C-41.79135685 163.11414287 -39.23210662 167.89155029 -36.625 172.875 C-32.6889988 180.1928145 -28.69757443 186.889724 -23 193 C-22.32839844 193.73863281 -21.65679687 194.47726563 -20.96484375 195.23828125 C-10.23722291 206.51104434 2.48507559 214.51591291 16 222 C16.7336377 222.40669922 17.46727539 222.81339844 18.22314453 223.23242188 C20.41337513 224.43769955 22.61053655 225.62880721 24.8125 226.8125 C25.45670898 227.16127197 26.10091797 227.51004395 26.76464844 227.86938477 C31.68173461 230.46451358 36.74139931 232.59485907 41.88354492 234.70336914 C46.89339184 236.78776373 51.82063304 239.04562223 56.75 241.3125 C57.79494629 241.79106445 58.83989258 242.26962891 59.91650391 242.76269531 C65.80191924 245.47374012 71.61383013 248.28563636 77.375 251.25 C89.92256584 257.62336678 102.21901069 262.30132523 116.1640625 264.390625 C120.3644832 265.05790161 124.33892985 266.07361463 128.41796875 267.25390625 C136.17875532 269.49643308 144.07699926 271.26879145 151.9375 273.125 C152.65953613 273.29572021 153.38157227 273.46644043 154.12548828 273.64233398 C156.08208474 274.10164718 158.04096947 274.55118186 160 275 C161.05586304 275.26695679 161.05586304 275.26695679 162.13305664 275.53930664 C166.30423927 276.20958013 170.43734964 276.20349368 174.65625 276.23828125 C175.59496948 276.246353 176.53368896 276.25442474 177.50085449 276.26274109 C179.48785577 276.27654943 181.47488043 276.28728607 183.46191406 276.29516602 C185.4730536 276.30664069 187.48416377 276.32702019 189.49511719 276.35668945 C206.56951261 276.60827957 220.91643473 274.88638298 235.25 264.6875 C242.25867345 257.83811458 248.17887233 249.79866073 248.3125 239.6875 C248.24322871 237.4234227 248.10972427 235.40650331 247.51933289 233.21923828 C245.1966841 223.2939837 245.81097254 212.44568893 245.76171875 202.3125 C245.75560546 201.22940048 245.75560546 201.22940048 245.74936867 200.12442017 C245.72871405 196.30983795 245.71431927 192.4952896 245.70483398 188.68066406 C245.6937458 184.78433575 245.65925878 180.88857455 245.61966228 176.9924469 C245.59331277 173.95348171 245.58512663 170.91464916 245.58155251 167.87557983 C245.57674258 166.44050212 245.56529292 165.005428 245.54651451 163.57046509 C245.38950294 150.79066094 247.91961683 140.06129637 254.0625 128.875 C259.77285309 117.86705876 261.77224165 108.50437443 261 96 C260.95359375 95.16210938 260.9071875 94.32421875 260.859375 93.4609375 C259.70664324 84.87611941 252.59480187 79.02710066 246.1875 73.8125 C238.90572289 67.79200068 236.42726355 58.4924101 235.25 49.4375 C233.87932256 41.5118893 228.93094073 37.28465227 222.75 32.5625 C215.11846029 27.46308406 206.50106033 23.44213736 198 20 C197.39873291 19.74299316 196.79746582 19.48598633 196.17797852 19.22119141 C189.32628829 16.57455504 182.78393499 16.57580509 175.5078125 16.59375 C173.51987895 16.57717169 171.53194541 16.56057575 169.5440197 16.54308319 C166.07105393 16.51649297 162.59804888 16.50882411 159.125 16.5 C153.7107328 16.4860084 148.29683906 16.46070906 142.8828125 16.40625 C141.88163391 16.39654615 141.88163391 16.39654615 140.86022949 16.38664627 C130.19245529 16.26141409 119.72041854 15.38347627 109.13510132 14.07540894 C100.61684031 13.02449384 92.33342253 12.54094037 83.75 12.625 C82.51894531 12.61339844 81.28789062 12.60179687 80.01953125 12.58984375 C68.56618164 12.62589837 57.24088858 14.20209429 46.625 18.6875 C46.02034912 18.94241211 45.41569824 19.19732422 44.79272461 19.45996094 C42.85324368 20.28830411 40.92645004 21.14183232 39 22 C37.98268799 22.44303467 37.98268799 22.44303467 36.94482422 22.89501953 C22.257082 29.32410085 8.96423667 37.5884628 -4 47 C-0.33505931 43.09950547 3.46199797 40.10648303 7.9375 37.1875 C8.58847656 36.75880615 9.23945312 36.3301123 9.91015625 35.88842773 C18.5857443 30.23694368 27.4142033 24.95777212 37 21 C37 20.34 37 19.68 37 19 C38.19625 18.7525 39.3925 18.505 40.625 18.25 C46.04795483 17.05540298 51.34730288 15.48480891 56.66796875 13.90234375 C62.39045812 12.35264264 67.84552144 11.84225515 73.7578125 11.83203125 C74.4944664 11.82793243 75.2311203 11.82383362 75.99009705 11.8196106 C78.36844594 11.81007951 80.74663482 11.81008002 83.125 11.8125 C84.34218216 11.81191086 84.34218216 11.81191086 85.58395386 11.81130981 C97.11442579 11.81800952 108.3861465 12.34820804 119.8359375 13.75634766 C135.79516409 15.55320101 151.97271002 15.11683008 168 15 C153.30571817 0.30571817 92.588869 7.68167609 72.63671875 7.67773438 C70.375488 7.6796247 68.1142575 7.68182345 65.85302734 7.68432617 C60.0804554 7.69020844 54.30819527 7.67291791 48.53567505 7.6499815 C44.03686679 7.63524928 39.53813475 7.63437 35.03930664 7.63749123 C32.90876633 7.63698119 30.7782214 7.63180375 28.64770508 7.62167931 C25.6881025 7.60929513 22.72912433 7.61611035 19.76953125 7.62768555 C18.90930862 7.62004181 18.049086 7.61239807 17.16279602 7.60452271 C1.62732754 7.73830923 -9.33436553 17.08311217 -18.94140625 28.58984375 Z M254 154 C255 156 255 156 255 156 Z " fill="#050505" transform="translate(79,3)"/>
<path d="M0 0 C4.89092254 4.48733592 4.89092254 4.48733592 5.625 7.9375 C4.3694547 14.08967195 -0.4064494 17.55167206 -5.15625 21.21484375 C-7.84309594 22.35903026 -9.20913999 21.84870566 -12 21 C-15.26223329 19.63343611 -18.46937856 18.18923289 -21.67773438 16.703125 C-31.31787579 12.34410453 -39.63619325 10.53825323 -50.25 10.75 C-51.82394531 10.75773437 -51.82394531 10.75773437 -53.4296875 10.765625 C-58.40650507 10.81602315 -63.09935413 11.07616691 -68 12 C-70.05978132 12.13472784 -72.12355588 12.21860921 -74.1875 12.25 C-75.21230469 12.27578125 -76.23710938 12.3015625 -77.29296875 12.328125 C-80 12 -80 12 -81.82421875 10.65234375 C-83 9 -83 9 -83.625 6.3125 C-82.49182407 0.30666755 -78.43906553 -3.19703628 -73.6484375 -6.73828125 C-50.7274529 -20.6916903 -20.25117927 -16.09550083 0 0 Z " fill="#090909" transform="translate(180,73)"/>
<path d="M0 0 C1.6406543 -0.03673828 1.6406543 -0.03673828 3.31445312 -0.07421875 C10.81984843 -0.10133035 16.50131203 0.80266419 22.24389648 5.85400391 C23.5625 7.375 23.5625 7.375 24.0625 9.875 C23.5625 12.375 23.5625 12.375 21.67578125 13.9375 C17.29655502 15.95952667 13.01253487 16.33865105 8.25 16.875 C6.2730723 17.12209553 4.29650854 17.37211953 2.3203125 17.625 C1.34610352 17.74875 0.37189453 17.8725 -0.63183594 18 C-4.56582328 18.52580965 -8.47100365 19.16183793 -12.375 19.875 C-13.58027344 20.0915625 -14.78554687 20.308125 -16.02734375 20.53125 C-22.20372901 22.0164541 -22.20372901 22.0164541 -27.4375 25.375 C-27.80957423 30.77007633 -27.97045236 35.96368932 -24.4375 40.375 C-21.66175855 42.4770178 -18.78202008 44.29835687 -15.8203125 46.12890625 C-12.20159462 48.42954116 -9.11714276 51.20053403 -5.9375 54.0625 C-0.97384335 58.47638456 3.72222918 61.16515162 10.1015625 63.27734375 C12.90676194 64.52855176 13.95923756 65.79794394 15.5625 68.375 C10.42759107 67.56173634 6.10239253 65.4814831 1.40234375 63.3359375 C-1.53226101 62.34293506 -2.64614731 62.14406942 -5.4375 63.375 C-6.0975 64.035 -6.7575 64.695 -7.4375 65.375 C-8.9534375 65.1584375 -8.9534375 65.1584375 -10.5 64.9375 C-16.6599946 65.62194384 -19.35475363 69.99958364 -23.4375 74.375 C-27.4180956 78.28419478 -30.42336129 79.69625342 -36.0625 79.9375 C-39.89371286 79.77413329 -41.28978221 79.46768567 -44.625 77.375 C-45.223125 76.715 -45.82125 76.055 -46.4375 75.375 C-46.1075 73.725 -45.7775 72.075 -45.4375 70.375 C-43.5625 69.75 -43.5625 69.75 -41.4375 69.375 C-40.7775 70.035 -40.1175 70.695 -39.4375 71.375 C-33.88201756 71.375 -30.90851752 69.73395002 -27.01953125 66.046875 C-23.54954731 62.37983025 -21.5477266 59.94572911 -21.1875 54.8125 C-22.75995099 50.48825978 -24.52920985 49.63254933 -28.43359375 47.48828125 C-32.87454252 45.02108749 -34.88462193 42.11465394 -36.4375 37.375 C-36.48017833 35.41713177 -36.47818386 33.45791069 -36.4375 31.5 C-36.66614205 27.54011425 -36.82499281 25.96342571 -39.72265625 23.1796875 C-42.4560734 21.34948757 -42.4560734 21.34948757 -45.28515625 19.875 C-45.99542969 19.38 -46.70570313 18.885 -47.4375 18.375 C-47.4375 17.055 -47.4375 15.735 -47.4375 14.375 C-45.4375 13.375 -45.4375 13.375 -43.6171875 13.41015625 C-36.11772362 13.49913294 -31.21440085 10.15491658 -25.23583984 6.05688477 C-17.08165004 0.5239015 -9.6733702 0.01136039 0 0 Z " fill="#0A0A0A" transform="translate(257.4375,67.625)"/>
<path d="M0 0 C9.50792567 4.72853378 19.37300148 6.49656751 29.76708984 3.65405273 C35.37884102 1.46152181 39.63438636 -1.1204658 43.97021484 -5.27563477 C45.43896484 -6.43579102 45.43896484 -6.43579102 48.37646484 -6.81079102 C49.05708984 -6.68704102 49.73771484 -6.56329102 50.43896484 -6.43579102 C51.31396484 -4.37329102 51.31396484 -4.37329102 51.43896484 -1.43579102 C47.04039929 5.93432454 39.59647635 10.92739877 31.40771484 13.04858398 C16.0098095 15.72295702 1.51731828 11.99083146 -12.12353516 4.68920898 C-17.00847253 2.31586677 -21.52905037 2.06491929 -26.87353516 2.00170898 C-28.02221069 1.97971436 -28.02221069 1.97971436 -29.1940918 1.95727539 C-34.41140818 2.05208377 -37.43891239 3.1321332 -41.56103516 6.56420898 C-43.40342273 8.49801988 -43.40342273 8.49801988 -44.81103516 10.56420898 C-45.29056641 11.22420898 -45.77009766 11.88420898 -46.26416016 12.56420898 C-49.77416441 17.9772276 -50.21050499 22.16363671 -49.56103516 28.56420898 C-48.89997044 30.91805792 -48.09510371 33.1618192 -47.22900391 35.44702148 C-46.23749687 38.5896929 -46.35230685 41.29413226 -46.56103516 44.56420898 C-48.54103516 45.05920898 -48.54103516 45.05920898 -50.56103516 45.56420898 C-57.36924172 38.05170519 -58.0761393 31.01108309 -57.84228516 21.18920898 C-57.12723562 11.973015 -53.47016673 4.91526973 -46.53369141 -1.23266602 C-33.47199881 -11.44851498 -13.72672928 -6.85620971 0 0 Z " fill="#0E0E0E" transform="translate(85.56103515625,92.435791015625)"/>
<path d="M0 0 C4.56302449 -0.23695231 7.68001382 0.41688895 11.875 2.1875 C17.79600287 4.5873522 23.76252177 6.55795676 29.88232422 8.38745117 C34.90346663 9.90346663 34.90346663 9.90346663 36 11 C36.25068786 14.09631103 36.18522508 17.20723686 36.1875 20.3125 C36.19974609 21.18068359 36.21199219 22.04886719 36.22460938 22.94335938 C36.22654297 23.78318359 36.22847656 24.62300781 36.23046875 25.48828125 C36.23457764 26.25696533 36.23868652 27.02564941 36.24291992 27.81762695 C35.9713747 30.25716738 35.21385935 31.88409011 34 34 C23.97148593 34.60881367 15.56318059 32.92384219 6 30 C4.97648438 29.71511719 3.95296875 29.43023437 2.8984375 29.13671875 C-3.72407315 27.27592685 -3.72407315 27.27592685 -6 25 C-6.45091176 20.46547891 -5.63502634 17.62914436 -3.5625 13.625 C-1.28724196 8.92665641 -0.29389066 5.19206831 0 0 Z " fill="#F7F7F7" transform="translate(151,180)"/>
<path d="M0 0 C5.59675365 0.59674595 10.22057853 2.62891923 15.3125 4.875 C20.87014571 7.30841985 26.36138296 9.54406918 32.17651367 11.29345703 C34 12 34 12 36 14 C35.88806293 20.9400983 34.11318603 30.88681397 29 36 C24.43292493 36.57088438 22.18652514 35.16028488 18.5 32.5625 C17.46101563 31.83933594 16.42203125 31.11617187 15.3515625 30.37109375 C14.80790039 29.98550293 14.26423828 29.59991211 13.70410156 29.20263672 C11.94704305 27.96262666 10.17539287 26.74645548 8.3984375 25.53515625 C-0.65106758 19.34893242 -0.65106758 19.34893242 -3 17 C-2.69347955 14.0574037 -2.32728846 11.65457692 -1 9 C-0.77532169 7.46331135 -0.59203195 5.92031946 -0.4375 4.375 C-0.35371094 3.55773437 -0.26992187 2.74046875 -0.18359375 1.8984375 C-0.12300781 1.27195313 -0.06242187 0.64546875 0 0 Z " fill="#F9F9F9" transform="translate(107,164)"/>
<path d="M0 0 C4.10882687 0.61106022 7.95864169 1.50311504 11.921875 2.7421875 C13.03046875 3.08636719 14.1390625 3.43054688 15.28125 3.78515625 C16.4259375 4.14480469 17.570625 4.50445312 18.75 4.875 C21.01552876 5.58103807 23.28115245 6.28677157 25.546875 6.9921875 C26.63419922 7.3334668 27.72152344 7.67474609 28.84179688 8.02636719 C32.57200381 9.17634131 36.32186488 10.24938104 40.08300781 11.29345703 C42 12 42 12 44 14 C43.61765316 18.87492223 42.4234304 23.35012736 41 28 C35.5905998 27.42947732 31.03785079 26.074745 26 24.0625 C22.08449493 22.52105116 18.25506445 21.07096762 14.1953125 19.94140625 C7.76242974 18.04614373 4.21458603 13.58074868 0.90234375 8.00390625 C-0.33327738 5.25986451 -0.36973174 2.95785392 0 0 Z " fill="#F8F8F8" transform="translate(106,135)"/>
<path d="M0 0 C5.29251836 -0.14585681 10.17323703 0.35805345 15.375 1.3125 C16.49273804 1.5144397 16.49273804 1.5144397 17.63305664 1.72045898 C31.28309925 4.28309925 31.28309925 4.28309925 35 8 C36.48016845 11.84843796 36.13290462 15.94640914 36 20 C33.82831166 22.17168834 28.77774592 21.30821011 25.78564453 21.32348633 C15.72224925 21.16738746 5.88734776 18.77182211 -3 14 C-2.48594831 9.03083364 -1.76615118 4.70973649 0 0 Z " fill="#F4F4F4" transform="translate(158,152)"/>
<path d="M0 0 C2.49023438 0.01660156 2.49023438 0.01660156 5.59375 0.390625 C6.70621094 0.52339844 7.81867188 0.65617188 8.96484375 0.79296875 C10.71474609 1.01919922 10.71474609 1.01919922 12.5 1.25 C13.66660156 1.38535156 14.83320313 1.52070313 16.03515625 1.66015625 C24.73935599 2.73935599 24.73935599 2.73935599 27 5 C25.94339623 20.05660377 25.94339623 20.05660377 22 24 C19.78515625 24.25878906 19.78515625 24.25878906 17.0625 24.265625 C16.08539063 24.26820313 15.10828125 24.27078125 14.1015625 24.2734375 C13.07804688 24.26570313 12.05453125 24.25796875 11 24.25 C9.97648438 24.25773437 8.95296875 24.26546875 7.8984375 24.2734375 C6.92132813 24.27085937 5.94421875 24.26828125 4.9375 24.265625 C4.03902344 24.26336914 3.14054688 24.26111328 2.21484375 24.25878906 C0 24 0 24 -2 22 C-2.25878906 19.96875 -2.25878906 19.96875 -2.265625 17.5 C-2.26820313 16.613125 -2.27078125 15.72625 -2.2734375 14.8125 C-2.26183594 13.4203125 -2.26183594 13.4203125 -2.25 12 C-2.25773438 11.071875 -2.26546875 10.14375 -2.2734375 9.1875 C-2.27085937 8.300625 -2.26828125 7.41375 -2.265625 6.5 C-2.26336914 5.6853125 -2.26111328 4.870625 -2.25878906 4.03125 C-2 2 -2 2 0 0 Z " fill="#F8F8F8" transform="translate(196,192)"/>
<path d="M0 0 C3.98443002 0.603893 6.97887896 1.8616666 10.515625 3.7734375 C11.58925293 4.34570068 12.66288086 4.91796387 13.76904297 5.50756836 C14.91775879 6.1238208 16.06647461 6.74007324 17.25 7.375 C46.34960709 22.75043638 75.19800005 32.96901068 107.421875 39.296875 C110.24268098 39.85118185 113.05925028 40.42087417 115.875 41 C119.90444241 41.77989208 123.93773379 42.42475812 128 43 C128.8859082 43.13390137 129.77181641 43.26780273 130.68457031 43.40576172 C147.02142146 45.78587654 163.40863645 46.42938028 179.89898682 46.63858032 C182.14983028 46.67083757 184.400529 46.71625484 186.65081787 46.77572632 C204.2063444 47.20666411 217.32572838 44.91883387 230.6171875 32.640625 C232.11204099 30.86707001 233.05456521 29.11116507 234 27 C234.82250808 32.87505768 234.82250808 32.87505768 232.86328125 35.5546875 C222.47784227 44.8588338 211.43875142 49.32472113 197.70703125 49.23046875 C196.6063884 49.23001053 195.50574554 49.22955231 194.37174988 49.2290802 C192.03924483 49.22606254 189.70674172 49.21819081 187.37426758 49.20581055 C183.86987848 49.18779497 180.36575828 49.18529954 176.86132812 49.18554688 C157.55282797 49.1581767 138.94482381 48.55193847 119.9375 45.0625 C118.42270668 44.79390116 116.90773219 44.52632201 115.39257812 44.25976562 C111.25753484 43.52819842 107.12830644 42.76868206 103 42 C102.06671875 41.82887695 101.1334375 41.65775391 100.171875 41.48144531 C93.4021286 40.19235914 86.77352269 38.42904358 80.125 36.625 C79.03058594 36.33367187 77.93617188 36.04234375 76.80859375 35.7421875 C67.3616 33.19317617 57.83359265 30.58806156 49 26.3125 C45.17910942 24.48847962 41.35820171 22.70843079 37.46875 21.03515625 C28.13750446 16.9963006 19.15001244 12.60103375 10.3125 7.5625 C9.39726563 7.04220215 8.48203125 6.5219043 7.5390625 5.98583984 C1.13165691 2.26331382 1.13165691 2.26331382 0 0 Z " fill="#262626" transform="translate(76,205)"/>
<path d="M0 0 C4.92877265 0.65249015 9.01831099 2.71221477 13.45703125 4.82421875 C14.27765549 5.20810257 15.09827972 5.59198639 15.94377136 5.98750305 C19.43480482 7.62061145 22.91999567 9.26599993 26.4050293 10.91186523 C36.34034533 15.59491539 46.24316514 20.0347617 56.58105469 23.75854492 C59.90517454 24.96556788 63.16385936 26.28827177 66.4375 27.625 C79.37896564 32.58290748 92.47197787 34.66192561 106.25 35.25 C106.99203674 35.28570099 107.73407349 35.32140198 108.49859619 35.35818481 C121.29281458 35.96869033 134.10334938 36.28003928 146.91101074 36.40539551 C148.86301674 36.42653869 150.81495682 36.45539525 152.76672363 36.49255371 C168.71328691 36.77132775 180.77000801 35.04298756 193.6953125 24.76953125 C195.74545714 23.19543714 197.65152467 22.05519053 200 21 C196.40925741 29.31053311 188.4143322 33.72008688 180.3828125 36.9921875 C170.28720667 39.99988531 160.33791824 40.36047811 149.875 40.3125 C149.11286194 40.31167419 148.35072388 40.31084839 147.56549072 40.30999756 C134.29934119 40.27748333 121.10321898 39.59506541 107.875 38.625 C106.99986755 38.56196686 106.12473511 38.49893372 105.2230835 38.43399048 C92.04984956 37.46493677 80.12319679 35.62509869 67.5625 31.375 C66.51191406 31.02091064 65.46132812 30.66682129 64.37890625 30.30200195 C54.70498055 26.98759643 45.32995063 23.17509512 36 19 C35.02434082 18.56751953 34.04868164 18.13503906 33.04345703 17.68945312 C7.92124277 6.52402457 7.92124277 6.52402457 0 1 C0 0.67 0 0.34 0 0 Z " fill="#424242" transform="translate(94,204)"/>
<path d="M0 0 C6.97290726 0.41302935 12.03503537 2.60551061 18.1875 5.8125 C19.06341797 6.25142578 19.93933594 6.69035156 20.84179688 7.14257812 C31.88983779 12.77967557 31.88983779 12.77967557 34 17 C34.07092842 19.2072923 34.08415025 21.41667452 34.0625 23.625 C34.05347656 24.81351563 34.04445312 26.00203125 34.03515625 27.2265625 C34.02355469 28.14179688 34.01195312 29.05703125 34 30 C28.16333882 29.47971416 23.66493343 27.11438259 18.5625 24.4375 C17.74201172 24.03208984 16.92152344 23.62667969 16.07617188 23.20898438 C9.16712417 19.6083394 3.80966492 15.01273525 0.5625 7.8125 C0.02333597 5.11667984 -0.16119205 2.74026483 0 0 Z " fill="#F7F7F7" transform="translate(64,117)"/>
<path d="M0 0 C5.28558719 2.84608541 5.28558719 2.84608541 7.25 5.75 C7 8.5 7 8.5 6.25 10.75 C2.27423631 10.33585795 -1.05113924 9.71905953 -4.75 8.1875 C-9.40780032 6.34960587 -13.39496278 6.29048054 -18.3125 7.25 C-21.06293363 8.94257454 -21.55629924 10.12613118 -23.125 12.875 C-24.6171875 15.02734375 -24.6171875 15.02734375 -26.75 16.75 C-34.35920996 18.11423475 -41.02596491 17.66162572 -47.75 13.75 C-49.6875 12.375 -49.6875 12.375 -50.75 10.75 C-50.4375 8.0625 -50.4375 8.0625 -49.75 5.75 C-43.125 5.5 -43.125 5.5 -39.75 7.75 C-34.6672535 7.53176573 -31.89847251 5.65023884 -27.875 2.6875 C-19.46581058 -2.97507486 -9.58307193 -3.15866617 0 0 Z " fill="#0E0E0E" transform="translate(310.75,96.25)"/>
<path d="M0 0 C1.31105713 -0.00999023 2.62211426 -0.01998047 3.97290039 -0.03027344 C11.63759245 0.03574052 18.93968573 0.74101364 26.5078125 1.94921875 C36.97107916 3.59503215 47.23182414 3.83195305 57.80834961 3.71875 C60.79358246 3.68703701 63.77828555 3.67770157 66.76367188 3.671875 C68.69271474 3.66272158 70.62175231 3.65235118 72.55078125 3.640625 C73.86650871 3.63425018 73.86650871 3.63425018 75.20881653 3.62774658 C80.37031158 3.56818331 85.32397696 3.13538461 90.4375 2.4375 C93.66736346 2.21531089 96.88818631 2.1633206 100.125 2.125 C101.36733398 2.08149414 101.36733398 2.08149414 102.63476562 2.03710938 C106.78618196 1.99390008 108.90142306 2.10797235 112.51953125 4.33203125 C114.4375 6.4375 114.4375 6.4375 114.4375 8.4375 C108.5625 6.5625 108.5625 6.5625 107.4375 5.4375 C104.80199153 5.33544159 102.19797552 5.2989616 99.5625 5.3125 C98.84835937 5.30863281 98.13421875 5.30476563 97.3984375 5.30078125 C93.47134006 5.30774419 89.63780803 5.49986603 85.734375 5.9296875 C77.35796339 6.74153042 68.9432274 6.66111763 60.53515625 6.67773438 C57.60386941 6.6873641 54.67330839 6.71842953 51.7421875 6.75 C41.22562672 6.80743157 31.16322026 6.17972898 20.77522278 4.52578735 C13.38309969 3.36080531 6.2454368 2.97056079 -1.25 3.0625 C-2.48041016 3.07192627 -3.71082031 3.08135254 -4.97851562 3.09106445 C-19.72793311 3.33398465 -33.03213022 5.24166235 -46.5625 11.4375 C-48.34140625 12.24574219 -48.34140625 12.24574219 -50.15625 13.0703125 C-60.47157058 17.91253427 -68.41832516 24.22236748 -76.71484375 31.93359375 C-78.5625 33.4375 -78.5625 33.4375 -80.5625 33.4375 C-74.1099104 19.10895546 -55.02597838 10.86484239 -41.24365234 5.41137695 C-28.04836689 0.61844364 -13.89829079 0.04740907 0 0 Z " fill="#282828" transform="translate(165.5625,24.5625)"/>
<path d="M0 0 C0.80146454 0.0021048 1.60292908 0.00420959 2.42868042 0.00637817 C13.879208 0.04169239 25.09547146 0.60835136 36.46533203 2.00634766 C52.75235544 3.84383911 69.26893234 3.36440271 85.625 3.25 C85.625 3.91 85.625 4.57 85.625 5.25 C77.31985743 6.29896793 69.05093028 6.48707333 60.6875 6.5 C59.6382988 6.50350464 59.6382988 6.50350464 58.56790161 6.50708008 C48.95968651 6.51905073 39.60283665 5.99317605 30.0625 4.75 C20.14682618 3.4721418 10.36058782 2.91500478 0.375 2.875 C-0.8735376 2.86146484 -2.1220752 2.84792969 -3.40844727 2.83398438 C-14.84566964 2.88876982 -26.1481387 4.45802107 -36.75 8.9375 C-37.35465088 9.19241211 -37.95930176 9.44732422 -38.58227539 9.70996094 C-40.52175632 10.53830411 -42.44854996 11.39183232 -44.375 12.25 C-45.39231201 12.69303467 -45.39231201 12.69303467 -46.43017578 13.14501953 C-59.1695665 18.72127337 -71.18061288 25.41838714 -82.25 33.875 C-85.375 36.25 -85.375 36.25 -87.375 36.25 C-86.28444176 32.97832528 -85.80542999 32.55474152 -83.12109375 30.6484375 C-82.43869629 30.1622998 -81.75629883 29.67616211 -81.05322266 29.17529297 C-80.31378418 28.66369629 -79.5743457 28.15209961 -78.8125 27.625 C-78.05759277 27.09664551 -77.30268555 26.56829102 -76.52490234 26.02392578 C-70.09397688 21.59539615 -63.43504389 17.70251869 -56.5703125 13.9921875 C-53.35209523 12.2987988 -53.35209523 12.2987988 -50.375 10.25 C-49.055 10.25 -47.735 10.25 -46.375 10.25 C-46.375 9.59 -46.375 8.93 -46.375 8.25 C-43.41959945 7.28246357 -40.46019484 6.32775732 -37.5 5.375 C-36.26636719 4.97087891 -36.26636719 4.97087891 -35.0078125 4.55859375 C-23.21219272 0.78030929 -12.31798978 -0.07984219 0 0 Z " fill="#2A2A2A" transform="translate(162.375,13.75)"/>
<path d="M0 0 C12.59881459 -0.04693921 25.19760741 -0.08217467 37.79649258 -0.10362434 C43.65057464 -0.11393402 49.50459564 -0.12784945 55.35864258 -0.15087891 C129.23950072 -0.43360391 129.23950072 -0.43360391 156 5 C156.99 5.99 156.99 5.99 158 7 C143.39044806 7.23340811 128.88762608 7.03757565 114.3125 6.0625 C112.35558228 5.93222412 112.35558228 5.93222412 110.35913086 5.79931641 C104.95630653 5.41830514 99.61815904 4.95035388 94.25073242 4.22094727 C88.36014927 3.64268739 82.41487931 3.60766738 76.5 3.4375 C75.09113527 3.39422263 73.68228093 3.35060569 72.2734375 3.30664062 C68.8490454 3.20109429 65.42458708 3.09898202 62 3 C62 2.67 62 2.34 62 2 C41.54 1.67 21.08 1.34 0 1 C0 0.67 0 0.34 0 0 Z " fill="#F1F1F1" transform="translate(89,11)"/>
<path d="M0 0 C3 6.5 3 6.5 3 11 C-3.9480525 15.34253281 -15.16960396 14.86319326 -23 14 C-25.67927341 9.98108988 -25.15601248 7.75838077 -25 3 C-16.51168642 0.43056454 -8.85406634 -0.38558031 0 0 Z " fill="#F0F0F0" transform="translate(259,159)"/>
<path d="M0 0 C2.00282943 0.06556882 4.00340728 0.20399553 6 0.375 C7.16917969 0.47425781 8.33835938 0.57351562 9.54296875 0.67578125 C13.70285367 1.06591735 17.85099723 1.50774543 22 2 C23.42258812 5.82320557 24.24042276 8.91281305 24 13 C20.22960943 14.88519529 15.64845405 14.18475994 11.5 14.1875 C10.52417969 14.19974609 9.54835937 14.21199219 8.54296875 14.22460938 C7.14498047 14.22750977 7.14498047 14.22750977 5.71875 14.23046875 C4.86216797 14.23457764 4.00558594 14.23868652 3.12304688 14.24291992 C1 14 1 14 -1 12 C-1.23046875 9.43359375 -1.23046875 9.43359375 -1.1875 6.4375 C-1.18105469 5.44621094 -1.17460937 4.45492187 -1.16796875 3.43359375 C-1 1 -1 1 0 0 Z " fill="#F1F1F1" transform="translate(203,159)"/>
<path d="M0 0 C1.26972656 0.00257813 2.53945312 0.00515625 3.84765625 0.0078125 C5.11480469 0.00523437 6.38195312 0.00265625 7.6875 0 C10.91015625 0.1328125 10.91015625 0.1328125 12.91015625 1.1328125 C12.41523728 7.56675913 9.39491136 12.79508175 5.6015625 17.890625 C3.13929109 19.69894442 1.23192816 19.4265221 -1.77734375 19.3203125 C-3.26814453 19.27970703 -3.26814453 19.27970703 -4.7890625 19.23828125 C-5.54832031 19.20347656 -6.30757812 19.16867188 -7.08984375 19.1328125 C-7.46569538 12.33964232 -6.91665728 7.35180226 -4.08984375 1.1328125 C-3.08984375 0.1328125 -3.08984375 0.1328125 0 0 Z " fill="#F7F7F7" transform="translate(236.08984375,196.8671875)"/>
<path d="M0 0 C1.46373047 0.01353516 1.46373047 0.01353516 2.95703125 0.02734375 C4.06111328 0.04474609 4.06111328 0.04474609 5.1875 0.0625 C5.5175 1.7125 5.8475 3.3625 6.1875 5.0625 C4.640625 5.495625 4.640625 5.495625 3.0625 5.9375 C-0.26257997 6.88558798 -3.54001453 7.94506594 -6.8125 9.0625 C-7.0628577 12.43714024 -7.0628577 12.43714024 -6.8125 16.0625 C-5.8331121 17.08269573 -4.83354551 18.08399805 -3.8125 19.0625 C-3.625 22.25 -3.625 22.25 -3.8125 25.0625 C-5.9375 25.875 -5.9375 25.875 -8.8125 26.0625 C-14.44583333 22.1625 -14.44583333 22.1625 -15.8125 18.0625 C-16.00785885 15.92192517 -16.12409259 13.77353559 -16.1875 11.625 C-16.23648438 10.49191406 -16.28546875 9.35882813 -16.3359375 8.19140625 C-15.8125 5.0625 -15.8125 5.0625 -13.6015625 2.71484375 C-9.07669502 0.03414495 -5.17738347 -0.06237811 0 0 Z " fill="#101010" transform="translate(173.8125,113.9375)"/>
<path d="M0 0 C0.33 0 0.66 0 1 0 C1.82250808 5.87505768 1.82250808 5.87505768 -0.13671875 8.5546875 C-10.52215773 17.8588338 -21.56124858 22.32472113 -35.29296875 22.23046875 C-36.3936116 22.23001053 -37.49425446 22.22955231 -38.62825012 22.2290802 C-40.96075517 22.22606254 -43.29325828 22.21819081 -45.62573242 22.20581055 C-49.13012152 22.18779497 -52.63424172 22.18529954 -56.13867188 22.18554688 C-66.33279865 22.16974919 -76.51315037 22.0790997 -86.6953125 21.5546875 C-87.80322395 21.49772957 -87.80322395 21.49772957 -88.93351746 21.43962097 C-95.36617456 21.06108106 -101.66538049 20.17139284 -108 19 C-108 18.67 -108 18.34 -108 18 C-100.26794879 16.37219975 -93.00829072 16.81189573 -85.2421875 17.97265625 C-74.82627103 19.36928399 -64.37855786 19.51567454 -53.88232422 19.59033203 C-51.62718686 19.61344662 -49.37216209 19.65447 -47.11767578 19.71337891 C-29.11817804 20.18106799 -16.00982964 18.06824134 -2.28515625 5.640625 C-0.82855098 3.78112891 -0.39664208 2.30956148 0 0 Z " fill="#606060" transform="translate(309,232)"/>
<path d="M0 0 C10.16187367 1.49929284 19.5180572 5.93372069 27 13 C26.67 14.32 26.34 15.64 26 17 C20.82667758 18.86444491 17.26766348 16.76705531 12.5625 14.625 C7.69919378 12.45031634 3.3592311 10.59452643 -2 10 C-1.85950482 8.52031676 -1.71245174 7.04125484 -1.5625 5.5625 C-1.48128906 4.73878906 -1.40007812 3.91507812 -1.31640625 3.06640625 C-1 1 -1 1 0 0 Z " fill="#EEEEEE" transform="translate(148,67)"/>
<path d="M0 0 C4.00258616 0.04443487 8.00385465 0.11455563 12.00561523 0.20751953 C13.36421422 0.23557843 14.72297186 0.25686744 16.08178711 0.27099609 C29.98467047 0.42416778 29.98467047 0.42416778 36 5 C37.45986328 6.04607422 37.45986328 6.04607422 38.94921875 7.11328125 C49.82556256 15.84849033 49.82556256 15.84849033 51 21 C51.91544651 31.05901347 52.11340681 42.43480255 45.875 50.875 C39.43873512 55.63223926 34.07227452 58.55969412 26 59 C28.25299083 56.24359364 30.81360946 55.09713391 34.0402832 53.70410156 C41.31518094 50.55915319 41.31518094 50.55915319 45.8125 44.25 C46.53315034 42.06631602 46.53315034 42.06631602 47 40 C47.33 39.01 47.66 38.02 48 37 C48.85845287 26.48812708 48.85845287 26.48812708 45.53515625 16.73828125 C42.9396324 13.79932931 39.82698719 11.7368141 36.53515625 9.640625 C34 8 34 8 31.75488281 5.93554688 C28.39349322 3.57387578 26.46215288 3.46506215 22.38671875 3.390625 C21.13955078 3.35839844 19.89238281 3.32617188 18.60742188 3.29296875 C17.31384766 3.27878906 16.02027344 3.26460938 14.6875 3.25 C13.37458984 3.22035156 12.06167969 3.19070312 10.70898438 3.16015625 C7.47259465 3.08954411 4.23692189 3.03680123 1 3 C0.67 2.01 0.34 1.02 0 0 Z " fill="#282828" transform="translate(286,78)"/>
<path d="M0 0 C0 0.66 0 1.32 0 2 C-1.15298584 2.00410889 -2.30597168 2.00821777 -3.49389648 2.01245117 C-7.85744237 2.03456737 -12.22012731 2.0891802 -16.58325195 2.15258789 C-18.45556251 2.1754893 -20.3279968 2.19009666 -22.20043945 2.19555664 C-44.57986272 2.27357555 -62.4253561 7.11509267 -78.8203125 23.05859375 C-81 25 -81 25 -83 25 C-78.13422112 14.08225733 -66.0666917 7.39002435 -55.4375 3.1875 C-41.84128225 -1.27123808 -12.89246431 -6.44623216 0 0 Z " fill="#282828" transform="translate(178,36)"/>
<path d="M0 0 C4.92877265 0.65249015 9.01831099 2.71221477 13.45703125 4.82421875 C14.27765549 5.20810257 15.09827972 5.59198639 15.94377136 5.98750305 C19.43480482 7.62061145 22.91999567 9.26599993 26.4050293 10.91186523 C36.35017321 15.59954779 46.26184132 20.04148013 56.61157227 23.76464844 C59.82929515 24.9377645 62.97396618 26.22214713 66.125 27.5625 C75.39944624 31.18294289 85.28088655 32.96509743 95 35 C95 35.33 95 35.66 95 36 C75.13934594 38.92493269 53.73869488 26.92609123 36 19 C35.02724121 18.56896973 34.05448242 18.13793945 33.05224609 17.69384766 C7.92145341 6.52417146 7.92145341 6.52417146 0 1 C0 0.67 0 0.34 0 0 Z " fill="#2A2A2A" transform="translate(94,204)"/>
<path d="M0 0 C1.01320312 0.00902344 2.02640625 0.01804687 3.0703125 0.02734375 C5.54712801 0.05070993 8.02343379 0.08346832 10.5 0.125 C10.5 0.455 10.5 0.785 10.5 1.125 C9.80962646 1.20540527 9.11925293 1.28581055 8.40795898 1.36865234 C5.25040725 1.73981756 2.09398009 2.11983332 -1.0625 2.5 C-2.14853516 2.62632813 -3.23457031 2.75265625 -4.35351562 2.8828125 C-14.4478028 3.64638936 -14.4478028 3.64638936 -22.86328125 8.48046875 C-23.82814453 9.88232422 -23.82814453 9.88232422 -24.8125 11.3125 C-25.79669922 12.69501953 -25.79669922 12.69501953 -26.80078125 14.10546875 C-30.09512704 19.95955909 -30.86280216 25.62002343 -30.8125 32.25 C-30.80976074 32.98629639 -30.80702148 33.72259277 -30.80419922 34.48120117 C-30.65329965 42.49882476 -29.62798869 51.10187829 -25.5 58.125 C-23.91061376 59.44374026 -23.91061376 59.44374026 -22.0234375 60.44921875 C-21.353125 60.83787109 -20.6828125 61.22652344 -19.9921875 61.62695312 C-19.29351562 62.01818359 -18.59484375 62.40941406 -17.875 62.8125 C-15.39882143 64.22455439 -12.94500335 65.65859288 -10.5 67.125 C-10.5 67.455 -10.5 67.785 -10.5 68.125 C-17.83333689 67.66666644 -23.35859399 64.71251353 -28.375 59.3125 C-33.30331872 51.92002192 -32.9317869 43.37271526 -32.98046875 34.77124023 C-32.99993734 32.69418531 -33.06213892 30.62105624 -33.125 28.54492188 C-33.27923249 18.82179375 -31.41183187 13.24506247 -24.70898438 6.25805664 C-17.83669328 -0.55597675 -9.11263219 -0.15546485 0 0 Z " fill="#212121" transform="translate(49.5,78.875)"/>
<path d="M0 0 C4.50621593 1.37708868 8.5290426 3.16295181 12.6875 5.375 C13.80511719 5.96023437 14.92273438 6.54546875 16.07421875 7.1484375 C18.92363304 8.95167164 20.44738228 10.03591163 22 13 C22.29296875 15.796875 22.29296875 15.796875 22.1875 18.75 C22.16042969 19.73484375 22.13335937 20.7196875 22.10546875 21.734375 C22.07066406 22.48203125 22.03585938 23.2296875 22 24 C20.68 24.33 19.36 24.66 18 25 C0 3.8647541 0 3.8647541 0 0 Z " fill="#F0F0F0" transform="translate(77,148)"/>
<path d="M0 0 C0.08160748 1.89510699 0.13946459 3.79124504 0.1875 5.6875 C0.22230469 6.74324219 0.25710938 7.79898438 0.29296875 8.88671875 C-0.03787548 12.40249014 -0.89213687 14.19619156 -3 17 C-5.93971885 18.54335239 -7.66843858 19 -11 19 C-11.36590746 17.27327966 -11.71722195 15.54346345 -12.0625 13.8125 C-12.35833984 12.36810547 -12.35833984 12.36810547 -12.66015625 10.89453125 C-13.01007083 7.91422432 -12.90334436 5.85397257 -12 3 C-9.5625 1.25 -9.5625 1.25 -7 0 C-4.3333581 -1.33332095 -2.83319697 -0.67102033 0 0 Z " fill="#F3F3F3" transform="translate(281,152)"/>
<path d="M0 0 C5.88559959 0.03649549 10.6808403 0.40377057 15.875 3.3125 C16.5703125 5.421875 16.5703125 5.421875 16.875 7.3125 C14.66407017 8.41796492 13.33457455 8.49033262 10.8828125 8.59375 C9.70138672 8.64982422 9.70138672 8.64982422 8.49609375 8.70703125 C7.67238281 8.74183594 6.84867188 8.77664062 6 8.8125 C4.37744176 8.88170865 2.75503177 8.95450553 1.1328125 9.03125 C0.05217529 9.07668945 0.05217529 9.07668945 -1.05029297 9.12304688 C-3.16119735 9.31580538 -5.08564794 9.74508805 -7.125 10.3125 C-9.27415785 7.08876323 -9.50786803 6.04546326 -9.125 2.3125 C-6.22572002 -0.58677998 -4.03946686 0.01204612 0 0 Z " fill="#1A1A1A" transform="translate(184.125,125.6875)"/>
<path d="M0 0 C5.83795779 5.02357183 5.83795779 5.02357183 7.3046875 7.95703125 C7.3446795 9.95663137 7.34815549 11.95750367 7.3046875 13.95703125 C3.61945743 12.11441622 2.55304241 7.70209599 1.3046875 3.95703125 C-0.53568224 2.87579404 -0.53568224 2.87579404 -2.6953125 1.95703125 C-3.34411377 1.53671631 -3.99291504 1.11640137 -4.66137695 0.68334961 C-10.79874859 -3.21440966 -15.71438463 -3.73396445 -22.8828125 -3.48046875 C-24.39367432 -3.45436523 -24.39367432 -3.45436523 -25.93505859 -3.42773438 C-32.706512 -3.25836661 -39.28194312 -2.67828694 -45.953125 -1.48046875 C-48.5876645 -1.06014336 -51.03319292 -0.96495792 -53.6953125 -1.04296875 C-53.3653125 -2.03296875 -53.0353125 -3.02296875 -52.6953125 -4.04296875 C-14.23270427 -10.78797729 -14.23270427 -10.78797729 0 0 Z " fill="#282828" transform="translate(275.6953125,46.04296875)"/>
<path d="M0 0 C-1.35343361 4.16009317 -2.81355477 8.25010742 -4.4375 12.3125 C-4.84871094 13.36050781 -5.25992187 14.40851563 -5.68359375 15.48828125 C-7 18 -7 18 -10 19 C-12.33299825 19.03954234 -14.66708189 19.04401732 -17 19 C-16.4070431 13.36690945 -14.61571183 8.01495096 -12 3 C-8.06769671 0.37846447 -4.67664739 0 0 0 Z " fill="#EDEDED" transform="translate(270,195)"/>
<path d="M0 0 C33.33 0 66.66 0 101 0 C99.68 0.33 98.36 0.66 97 1 C97 1.66 97 2.32 97 3 C97.99 3.495 97.99 3.495 99 4 C86.79 3.67 74.58 3.34 62 3 C62 2.67 62 2.34 62 2 C41.54 1.67 21.08 1.34 0 1 C0 0.67 0 0.34 0 0 Z " fill="#D5D5D5" transform="translate(89,11)"/>
<path d="M0 0 C0.33 0 0.66 0 1 0 C1.82250808 5.87505768 1.82250808 5.87505768 -0.13671875 8.5546875 C-9.28814054 16.75329782 -20.13343576 22.36352594 -32.4609375 22.1953125 C-33.25150543 22.1924826 -34.04207336 22.18965271 -34.8565979 22.18673706 C-37.36289084 22.17560955 -39.86881645 22.15051926 -42.375 22.125 C-44.08202606 22.11496058 -45.78905777 22.10583641 -47.49609375 22.09765625 C-51.6642024 22.07569463 -55.83203908 22.04121671 -60 22 C-60 21.67 -60 21.34 -60 21 C-58.74509766 20.970271 -58.74509766 20.970271 -57.46484375 20.93994141 C-54.32609654 20.86129893 -51.18769914 20.77458997 -48.04931641 20.68261719 C-46.03694667 20.62603877 -44.02432773 20.57855912 -42.01171875 20.53125 C-26.82925755 20.07348735 -13.87578717 15.96792073 -2.35546875 5.67578125 C-0.83504407 3.79606313 -0.39654992 2.3638495 0 0 Z " fill="#181818" transform="translate(309,232)"/>
<path d="M0 0 C0.99 0 1.98 0 3 0 C2.835 0.680625 2.67 1.36125 2.5 2.0625 C1.92910941 5.4164822 1.93340977 8.60389805 2 12 C2.99 12.33 3.98 12.66 5 13 C5 13.66 5 14.32 5 15 C3.23141309 15.67260351 1.46003984 16.33788395 -0.3125 17 C-1.29863281 17.37125 -2.28476562 17.7425 -3.30078125 18.125 C-6 19 -6 19 -9 19 C-8.45985759 11.97814871 -4.62641896 5.24327482 0 0 Z " fill="#F0F0F0" transform="translate(282,192)"/>
<path d="M0 0 C4.73946492 0.46238682 9.55830485 1.54056416 13 5 C15.77856383 12.42499164 16.41893202 21.17018289 15 29 C13.24702326 32.45908245 11.29240646 34.92021433 8 37 C7.01 37 6.02 37 5 37 C6.17909113 34.10586723 7.10906739 32.91430419 9.625 30.9375 C13.2308149 26.4776763 12.52289919 22.51696533 12 17 C11.96261719 16.1853125 11.92523438 15.370625 11.88671875 14.53125 C11.4281019 10.53375388 10.7165215 8.63110834 7.640625 5.921875 C5.83450847 4.66677707 3.99323207 3.46044795 2.1171875 2.3125 C1.41851562 1.879375 0.71984375 1.44625 0 1 C0 0.67 0 0.34 0 0 Z " fill="#3B3B3B" transform="translate(311,89)"/>
<path d="M0 0 C0.79164551 -0.02586182 1.58329102 -0.05172363 2.39892578 -0.07836914 C6.36063503 -0.0916981 8.21358797 0.11799969 11.6640625 2.2734375 C13.625 4.375 13.625 4.375 13.625 6.375 C7.75 4.5 7.75 4.5 6.625 3.375 C3.98949153 3.27294159 1.38547552 3.2364616 -1.25 3.25 C-1.96414063 3.24613281 -2.67828125 3.24226563 -3.4140625 3.23828125 C-7.39737286 3.24534386 -11.28610617 3.44751417 -15.24609375 3.87890625 C-23.66141694 4.70192074 -32.11684278 4.48036315 -40.5625 4.4375 C-42.29492058 4.43247379 -44.02734257 4.42791287 -45.75976562 4.42382812 C-49.96487928 4.41291402 -54.16992366 4.39571152 -58.375 4.375 C-58.375 4.045 -58.375 3.715 -58.375 3.375 C-57.59600342 3.35518066 -56.81700684 3.33536133 -56.0144043 3.31494141 C-37.5945012 2.89631484 -37.5945012 2.89631484 -19.25 1.3125 C-12.83002693 0.55082023 -6.46625911 0.10457395 0 0 Z " fill="#161616" transform="translate(266.375,26.625)"/>
<path d="M0 0 C0.33 0 0.66 0 1 0 C1.74311927 21.93577982 1.74311927 21.93577982 -4.125 29.875 C-10.56126488 34.63223926 -15.92772548 37.55969412 -24 38 C-21.74700917 35.24359364 -19.18639054 34.09713391 -15.9597168 32.70410156 C-8.68481906 29.55915319 -8.68481906 29.55915319 -4.1875 23.25 C-3.46684966 21.06631602 -3.46684966 21.06631602 -3 19 C-2.67 18.01 -2.34 17.02 -2 16 C-1.61496448 13.27102562 -1.2601109 10.54871837 -0.9375 7.8125 C-0.84662109 7.06291016 -0.75574219 6.31332031 -0.66210938 5.54101562 C-0.4386269 3.69434465 -0.21894487 1.84721446 0 0 Z " fill="#2C2C2C" transform="translate(336,99)"/>
<path d="M0 0 C1.85546875 0.6328125 1.85546875 0.6328125 4 2 C5.30078125 4.6796875 5.30078125 4.6796875 6.3125 7.875 C6.65925781 8.92429688 7.00601562 9.97359375 7.36328125 11.0546875 C7.9877702 13.94342782 8.12713112 15.31176215 7 18 C6.34 18.66 5.68 19.32 5 20 C4.01 20 3.02 20 2 20 C0.3879491 13.23514355 -0.26618595 6.95041086 0 0 Z " fill="#E5E5E5" transform="translate(288,144)"/>
<path d="M0 0 C1.24458984 -0.00128906 2.48917969 -0.00257812 3.77148438 -0.00390625 C5.07279297 -0.00003906 6.37410156 0.00382812 7.71484375 0.0078125 C9.02001953 0.00394531 10.32519531 0.00007813 11.66992188 -0.00390625 C13.53487305 -0.00197266 13.53487305 -0.00197266 15.4375 0 C16.580979 0.00112793 17.72445801 0.00225586 18.90258789 0.00341797 C21.65234375 0.1328125 21.65234375 0.1328125 23.65234375 1.1328125 C23.65234375 1.7928125 23.65234375 2.4528125 23.65234375 3.1328125 C13.09234375 3.1328125 2.53234375 3.1328125 -8.34765625 3.1328125 C-8.67765625 2.4728125 -9.00765625 1.8128125 -9.34765625 1.1328125 C-6.01815625 0.02297917 -3.50606982 0.00345499 0 0 Z " fill="#5A5A5A" transform="translate(154.34765625,34.8671875)"/>
<path d="M0 0 C9.37852287 1.32373885 18.79574351 1.50609007 28.25 1.75 C29.42557968 1.78042389 29.42557968 1.78042389 30.62490845 1.8114624 C35.14556907 1.92604722 39.66638483 2.02976973 44.1875 2.125 C44.1875 2.455 44.1875 2.785 44.1875 3.125 C4.34797091 4.93805261 4.34797091 4.93805261 -13.8125 1.125 C-13.8125 0.795 -13.8125 0.465 -13.8125 0.125 C-8.88971726 -0.76322764 -4.92616514 -0.77922005 0 0 Z " fill="#5C5C5C" transform="translate(192.8125,26.875)"/>
<path d="M0 0 C0.66 0 1.32 0 2 0 C2.36368135 4.48540327 2.36368135 4.48540327 0.8515625 6.625 C-1.71033113 8.52750329 -3.64044663 8.51149211 -6.8125 8.6875 C-7.9571875 8.75195312 -9.101875 8.81640625 -10.28125 8.8828125 C-16.18931923 9.06899115 -22.08994953 9.07974581 -28 9 C-28 8.34 -28 7.68 -28 7 C-27.29391602 6.94465088 -26.58783203 6.88930176 -25.86035156 6.83227539 C-22.65661463 6.57916858 -19.45331489 6.32089096 -16.25 6.0625 C-15.13882813 5.97548828 -14.02765625 5.88847656 -12.8828125 5.79882812 C-11.81289062 5.71181641 -10.74296875 5.62480469 -9.640625 5.53515625 C-8.65610352 5.456604 -7.67158203 5.37805176 -6.65722656 5.29711914 C-4.3466506 5.03876091 -2.23262117 4.6322672 0 4 C0 2.68 0 1.36 0 0 Z " fill="#292929" transform="translate(154,114)"/>
<path d="M0 0 C0 0.33 0 0.66 0 1 C-1.28132813 1.04898438 -2.56265625 1.09796875 -3.8828125 1.1484375 C-13.07466486 1.53414077 -22.06803506 2.08544447 -31.15234375 3.59765625 C-33.81535526 3.97391165 -36.31555957 4.07415581 -39 4 C-38.67 3.01 -38.34 2.02 -38 1 C-25.44669425 -2.0197813 -12.76404381 -0.75495104 0 0 Z " fill="#535353" transform="translate(261,41)"/>
<path d="M0 0 C0.66 0 1.32 0 2 0 C-0.96709973 6.92323271 -7.45299919 11.65095774 -14.25 14.5 C-17.63684163 15.78390075 -20.38063182 16.15401567 -24 16 C-24 15.34 -24 14.68 -24 14 C-23.00033203 13.70609375 -23.00033203 13.70609375 -21.98046875 13.40625 C-13.49674529 10.65348938 -6.33311934 6.33311934 0 0 Z " fill="#242424" transform="translate(292,225)"/>
<path d="M0 0 C4.08924686 0.63801507 7.43405441 1.97160182 11.17578125 3.72265625 C12.33271484 4.26083984 13.48964844 4.79902344 14.68164062 5.35351562 C15.89198249 5.92305936 17.10226826 6.49272231 18.3125 7.0625 C19.54208537 7.63656561 20.77190091 8.2101385 22.00195312 8.78320312 C25.00360143 10.18397233 28.00280905 11.58972509 31 13 C31 13.99 31 14.98 31 16 C26.11189013 14.51760276 21.7200632 12.49694887 17.1875 10.1875 C16.48625 9.83365234 15.785 9.47980469 15.0625 9.11523438 C9.97249764 6.53259917 4.94282623 3.85585515 0 1 C0 0.67 0 0.34 0 0 Z " fill="#323232" transform="translate(94,204)"/>
<path d="M0 0 C12.21 0 24.42 0 37 0 C37 0.66 37 1.32 37 2 C28.11320844 3.11303997 19.3112711 3.11508965 10.375 3.0625 C8.87890775 3.05747303 7.38281387 3.05291225 5.88671875 3.04882812 C2.25777781 3.03792185 -1.37110027 3.02072382 -5 3 C-5 2.67 -5 2.34 -5 2 C-3.35 1.67 -1.7 1.34 0 1 C0 0.67 0 0.34 0 0 Z " fill="#313131" transform="translate(211,17)"/>
<path d="M0 0 C8.58 0 17.16 0 26 0 C24.68 0.33 23.36 0.66 22 1 C22 1.66 22 2.32 22 3 C22.66 3.33 23.32 3.66 24 4 C5.685 3.505 5.685 3.505 -13 3 C-13 2.67 -13 2.34 -13 2 C-6.565 1.505 -6.565 1.505 0 1 C0 0.67 0 0.34 0 0 Z " fill="#B4B4B4" transform="translate(164,11)"/>
<path d="M0 0 C0 0.33 0 0.66 0 1 C-0.57443848 1.03963867 -1.14887695 1.07927734 -1.74072266 1.12011719 C-4.37049926 1.31193245 -6.99737615 1.5307268 -9.625 1.75 C-10.52863281 1.811875 -11.43226562 1.87375 -12.36328125 1.9375 C-18.86039754 2.50659048 -22.97530979 3.93310481 -27.6796875 8.703125 C-28.07414062 9.21359375 -28.46859375 9.7240625 -28.875 10.25 C-29.57625 11.1575 -30.2775 12.065 -31 13 C-31.99 12.34 -32.98 11.68 -34 11 C-25.07311007 0.24715531 -13.70852799 -3.427132 0 0 Z " fill="#D4D4D4" transform="translate(52,78)"/>
<path d="M0 0 C0.60328125 0.19464844 1.2065625 0.38929687 1.828125 0.58984375 C1.1990625 1.08613281 0.57 1.58242188 -0.078125 2.09375 C-5.04955826 6.03945079 -9.9018929 10.04690936 -14.578125 14.33984375 C-16.171875 15.58984375 -16.171875 15.58984375 -18.171875 15.58984375 C-15.73680704 10.02397413 -6.83702938 -1.29116562 0 0 Z " fill="#282828" transform="translate(113.171875,45.41015625)"/>
<path d="M0 0 C4.83050403 2.10021914 7.64410113 5.31899832 10 10 C10.47368992 13.40283371 10.3771504 16.59167785 10 20 C9.34 20 8.68 20 8 20 C7.79375 18.700625 7.5875 17.40125 7.375 16.0625 C6.32892776 11.20134075 4.16736558 7.81554134 1.2421875 3.84765625 C0 2 0 2 0 0 Z " fill="#3D3D3D" transform="translate(170,39)"/>
<path d="M0 0 C1.53333984 0.00676758 1.53333984 0.00676758 3.09765625 0.01367188 C5.60683194 0.025397 8.1158849 0.04180824 10.625 0.0625 C10.625 0.3925 10.625 0.7225 10.625 1.0625 C6.70988185 1.59544568 2.79274466 2.11174855 -1.125 2.625 C-2.23617187 2.77646484 -3.34734375 2.92792969 -4.4921875 3.08398438 C-5.56210937 3.22255859 -6.63203125 3.36113281 -7.734375 3.50390625 C-8.71889648 3.63482666 -9.70341797 3.76574707 -10.71777344 3.90063477 C-13.23299021 4.05384946 -14.99646534 3.83478356 -17.375 3.0625 C-17.375 2.4025 -17.375 1.7425 -17.375 1.0625 C-11.58854356 -0.19156138 -5.88631884 -0.04936913 0 0 Z " fill="#424242" transform="translate(49.375,78.9375)"/>
<path d="M0 0 C-3.96307823 3.23085235 -8.03770985 6.26666079 -12.1875 9.25 C-12.81591797 9.70890625 -13.44433594 10.1678125 -14.09179688 10.640625 C-18.76592727 14 -18.76592727 14 -21 14 C-19.4364824 9.3094472 -15.57434687 7.51196154 -11.625 4.75 C-10.45324219 3.89921875 -10.45324219 3.89921875 -9.2578125 3.03125 C-8.505 2.50015625 -7.7521875 1.9690625 -6.9765625 1.421875 C-6.28643066 0.93299805 -5.59629883 0.44412109 -4.88525391 -0.05957031 C-3 -1 -3 -1 0 0 Z " fill="#3C3C3C" transform="translate(96,36)"/>
<path d="M0 0 C0 0.99 0 1.98 0 3 C-2.4335567 4.3410005 -4.87135301 5.67294856 -7.3125 7 C-8.00279297 7.3815625 -8.69308594 7.763125 -9.40429688 8.15625 C-14.66015625 11 -14.66015625 11 -18 11 C-18 10.34 -18 9.68 -18 9 C-15.75335738 7.68144905 -13.50302694 6.37006028 -11.25 5.0625 C-10.61578125 4.68931641 -9.9815625 4.31613281 -9.328125 3.93164062 C-6.23708368 2.14463236 -3.48532332 0.75114727 0 0 Z " fill="#2C2C2C" transform="translate(113,25)"/>
<path d="M0 0 C5.82746337 2.97086368 9.98938779 5.97877558 13 12 C13.039992 13.99960012 13.04346799 16.00047242 13 18 C10.99197382 15.99197382 10.3938289 14.74648196 9.3125 12.1875 C7.75045552 8.9089884 6.2759422 7.19256877 3.25 5.1875 C2.1775 4.465625 1.105 3.74375 0 3 C0 2.01 0 1.02 0 0 Z " fill="#1E1E1E" transform="translate(323,85)"/>
<path d="M0 0 C0 0.66 0 1.32 0 2 C-2.64 2.66 -5.28 3.32 -8 4 C-8 4.66 -8 5.32 -8 6 C-6.68 6.33 -5.36 6.66 -4 7 C-9.37305699 7.35233161 -9.37305699 7.35233161 -12 7 C-14 5 -14 5 -15 3 C-9.8589823 1.20662173 -5.45981377 0 0 0 Z " fill="#3C3C3C" transform="translate(91,75)"/>
<path d="M0 0 C1.06347656 0.04833984 2.12695312 0.09667969 3.22265625 0.14648438 C4.31707031 0.20255859 5.41148437 0.25863281 6.5390625 0.31640625 C8.21548828 0.3947168 8.21548828 0.3947168 9.92578125 0.47460938 C12.67219742 0.60371441 15.41819672 0.73865529 18.1640625 0.87890625 C18.1640625 1.20890625 18.1640625 1.53890625 18.1640625 1.87890625 C6.82518654 2.48356053 -4.47735433 3.06856719 -15.8359375 2.87890625 C-10.81077579 -0.02022551 -5.69448877 -0.27553978 0 0 Z " fill="#4E4E4E" transform="translate(150.8359375,14.12109375)"/>
<path d="M0 0 C3.06345144 -0.10822792 6.1230601 -0.18741479 9.1875 -0.25 C10.05181641 -0.28351562 10.91613281 -0.31703125 11.80664062 -0.3515625 C16.08152277 -0.41707794 18.38109899 -0.37584453 22.11328125 1.890625 C24 4 24 4 24 6 C18.125 4.125 18.125 4.125 17 3 C14.14471393 2.599617 11.30263513 2.2481773 8.4375 1.9375 C7.63119141 1.84662109 6.82488281 1.75574219 5.99414062 1.66210938 C3.99652623 1.43752551 1.9983144 1.21826764 0 1 C0 0.67 0 0.34 0 0 Z " fill="#333333" transform="translate(256,27)"/>
<path d="M0 0 C0.33 0 0.66 0 1 0 C2.10170636 10.21473398 2.77135433 18.51872509 -2 28 C-2.99 27.34 -3.98 26.68 -5 26 C-4.25130208 24.33984375 -3.50260417 22.6796875 -2.75390625 21.01953125 C-1.014611 16.36038284 -0.76011865 11.61895647 -0.4375 6.6875 C-0.35371094 5.43324219 -0.26992188 4.17898437 -0.18359375 2.88671875 C-0.12300781 1.93410156 -0.06242187 0.98148437 0 0 Z " fill="#C9C9C9" transform="translate(337,101)"/>
<path d="M0 0 C0.33 0 0.66 0 1 0 C1.5605111 4.83996884 2.05262134 9.18054967 -0.453125 13.51171875 C-2.2111347 15.56888557 -3.83144261 17.37938645 -6 19 C-6.99 19 -7.98 19 -9 19 C-7.6732501 16.05166688 -6.20060797 14.04091028 -3.9375 11.75 C-0.53491717 7.93347765 -0.17675035 5.03738492 0 0 Z " fill="#171717" transform="translate(325,107)"/>
<path d="M0 0 C2.39462715 0.46992683 4.78782273 0.945863 7.1796875 1.4296875 C8.99582087 1.79693885 10.81345204 2.15689728 12.6328125 2.5078125 C13.83550781 2.75144531 13.83550781 2.75144531 15.0625 3 C15.79597656 3.144375 16.52945313 3.28875 17.28515625 3.4375 C18.13400391 3.7159375 18.13400391 3.7159375 19 4 C19.33 4.66 19.66 5.32 20 6 C13.22920629 6.6155267 7.20129365 4.68005435 1 2 C0.67 1.34 0.34 0.68 0 0 Z " fill="#272727" transform="translate(144,236)"/>
<path d="M0 0 C3.85025879 0.60355408 6.86101159 1.76772603 10.3125 3.5625 C11.19550781 4.01753906 12.07851562 4.47257813 12.98828125 4.94140625 C13.65214844 5.29074219 14.31601563 5.64007813 15 6 C15 6.33 15 6.66 15 7 C9.725568 6.46179265 5.66663298 5.42664915 1 3 C0.67 2.01 0.34 1.02 0 0 Z " fill="#222222" transform="translate(124,218)"/>
<path d="M0 0 C-0.66 0 -1.32 0 -2 0 C-2 0.66 -2 1.32 -2 2 C-3.60149886 2.67305018 -5.20631029 3.33822227 -6.8125 4 C-7.70582031 4.37125 -8.59914063 4.7425 -9.51953125 5.125 C-12 6 -12 6 -15 6 C-14 3 -14 3 -11.85546875 1.796875 C-10.97503906 1.45140625 -10.09460938 1.1059375 -9.1875 0.75 C-8.31480469 0.39421875 -7.44210938 0.0384375 -6.54296875 -0.328125 C-3.86358764 -1.03604136 -2.56787877 -0.9337741 0 0 Z " fill="#353535" transform="translate(131,30)"/>
<path d="M0 0 C0.66 0 1.32 0 2 0 C0.25192871 5.46737191 -1.65794081 10.75824848 -4 16 C-4.66 16 -5.32 16 -6 16 C-5.52412884 9.97229862 -2.80277043 5.23321711 0 0 Z " fill="#BFBFBF" transform="translate(297,187)"/>
<path d="M0 0 C5.9782058 1.11458074 8.94612259 2.18602057 13 7 C7.93001981 6.34580901 3.58009223 4.1453591 -1 2 C-0.67 1.34 -0.34 0.68 0 0 Z " fill="#252525" transform="translate(260,129)"/>
<path d="M0 0 C-2.99450322 3.45519603 -5.50239569 5.04306291 -10 6 C-10.99 5.34 -11.98 4.68 -13 4 C-11.35 3.67 -9.7 3.34 -8 3 C-8 2.34 -8 1.68 -8 1 C-2.25 -1.125 -2.25 -1.125 0 0 Z " fill="#363636" transform="translate(124,21)"/>
<path d="M0 0 C0.99 0 1.98 0 3 0 C2.34 3.63 1.68 7.26 1 11 C0.67 11 0.34 11 0 11 C-0.33 9.35 -0.66 7.7 -1 6 C-2.32 6.99 -3.64 7.98 -5 9 C-3.76067171 5.56801397 -2.49698489 2.69674368 0 0 Z " fill="#CDCDCD" transform="translate(282,192)"/>
<path d="M0 0 C0.66 0 1.32 0 2 0 C1.58054965 2.51670208 1.17555668 4.65985893 0 6.9375 C-1.2771026 9.57152412 -1.60656997 12.11484648 -2 15 C-2.33 15 -2.66 15 -3 15 C-3.08142927 13.2507786 -3.13938541 11.50045458 -3.1875 9.75 C-3.22230469 8.77546875 -3.25710937 7.8009375 -3.29296875 6.796875 C-2.95840784 3.60293349 -2.23334367 2.27119696 0 0 Z " fill="#303030" transform="translate(229,50)"/>
<path d="M0 0 C1.5778125 0.433125 1.5778125 0.433125 3.1875 0.875 C4.115625 1.24625 5.04375 1.6175 6 2 C6.33 2.99 6.66 3.98 7 5 C5.41531323 4.54636829 3.83230076 4.08688548 2.25 3.625 C1.36828125 3.36976563 0.4865625 3.11453125 -0.421875 2.8515625 C-2.76080572 2.0790066 -4.83442562 1.16374324 -7 0 C-3.72199529 -1.09266824 -3.14727493 -0.98914355 0 0 Z " fill="#3F3F3F" transform="translate(138,233)"/>
<path d="M0 0 C0.66 0.66 1.32 1.32 2 2 C-4.11090483 2.09945415 -9.97403427 2.0712828 -16 1 C-16 0.67 -16 0.34 -16 0 C-10.57209212 -1.03938662 -5.42832209 -1.27139927 0 0 Z " fill="#393939" transform="translate(195,27)"/>
<path d="M0 0 C2.97 0 5.94 0 9 0 C9 0.99 9 1.98 9 3 C4.38 3 -0.24 3 -5 3 C-5 2.67 -5 2.34 -5 2 C-3.35 1.67 -1.7 1.34 0 1 C0 0.67 0 0.34 0 0 Z " fill="#5C5C5C" transform="translate(211,17)"/>
<path d="M0 0 C0.33 0.99 0.66 1.98 1 3 C-7.57142857 2.14285714 -7.57142857 2.14285714 -11 0 C-6.94952424 -1.35015859 -4.2079832 -0.62084998 0 0 Z " fill="#3F3F3F" transform="translate(172,242)"/>
<path d="M0 0 C1.73662334 3.22515763 2.8905928 6.51329166 4 10 C3.01 10.33 2.02 10.66 1 11 C-1.08997373 7.60379269 -1.2632246 4.94836905 -1 1 C-0.67 0.67 -0.34 0.34 0 0 Z " fill="#313131" transform="translate(19,126)"/>
<path d="M0 0 C2.26171875 0.4609375 2.26171875 0.4609375 4.6875 1.375 C5.49574219 1.67148438 6.30398437 1.96796875 7.13671875 2.2734375 C7.75160156 2.51320312 8.36648437 2.75296875 9 3 C6.68719735 4.44810616 5.58355661 5.12565635 2.859375 4.5390625 C2.16328125 4.23742187 1.4671875 3.93578125 0.75 3.625 C0.04359375 3.32851562 -0.6628125 3.03203125 -1.390625 2.7265625 C-1.92171875 2.48679688 -2.4528125 2.24703125 -3 2 C-2.01 1.34 -1.02 0.68 0 0 Z " fill="#343434" transform="translate(139,224)"/>
<path d="M0 0 C4.12751449 0.60698743 7.3321148 2.03810791 11 4 C10.01 5.485 10.01 5.485 9 7 C7.4972763 6.02501855 5.99788037 5.04490611 4.5 4.0625 C3.6646875 3.51722656 2.829375 2.97195312 1.96875 2.41015625 C1.3190625 1.94480469 0.669375 1.47945312 0 1 C0 0.67 0 0.34 0 0 Z " fill="#343434" transform="translate(76,205)"/>
<path d="M0 0 C3 3 3 3 3.328125 4.97265625 C3.11111111 10.77777778 3.11111111 10.77777778 2 13 C1.34 13 0.68 13 0 13 C0 8.71 0 4.42 0 0 Z " fill="#ABABAB" transform="translate(225,56)"/>
<path d="M0 0 C0.66 0.33 1.32 0.66 2 1 C-1.3 4.3 -4.6 7.6 -8 11 C-8 8 -8 8 -5.6875 5.5 C-4.800625 4.675 -3.91375 3.85 -3 3 C-2.401875 2.401875 -1.80375 1.80375 -1.1875 1.1875 C-0.795625 0.795625 -0.40375 0.40375 0 0 Z " fill="#292929" transform="translate(42,89)"/>
<path d="M0 0 C-1 3 -1 3 -3.375 4.25 C-6 5 -6 5 -9 4 C-4.5 0 -4.5 0 0 0 Z " fill="#CDCDCD" transform="translate(115,73)"/>
<path d="M0 0 C-3.25125017 2.16750011 -5.14533632 2.68533358 -9 3 C-11.375 2.0625 -11.375 2.0625 -13 1 C-4.57142857 -1.42857143 -4.57142857 -1.42857143 0 0 Z " fill="#333333" transform="translate(291,251)"/>
<path d="M0 0 C-1 2 -1 2 -2.84765625 2.6328125 C-3.57855469 2.79523437 -4.30945313 2.95765625 -5.0625 3.125 C-5.79597656 3.29257812 -6.52945313 3.46015625 -7.28515625 3.6328125 C-7.85105469 3.75398438 -8.41695313 3.87515625 -9 4 C-9.33 3.01 -9.66 2.02 -10 1 C-3.71428571 -1.42857143 -3.71428571 -1.42857143 0 0 Z " fill="#3E3E3E" transform="translate(134,38)"/>
<path d="M0 0 C0 0.99 0 1.98 0 3 C-3.08809695 4.76462683 -4.23312136 5 -8 5 C-8 4.34 -8 3.68 -8 3 C-5.36 2.01 -2.72 1.02 0 0 Z " fill="#1A1A1A" transform="translate(113,25)"/>
<path d="M0 0 C5.53846154 0.61538462 5.53846154 0.61538462 7.875 2.5625 C8.431875 3.2740625 8.431875 3.2740625 9 4 C2.25 3.125 2.25 3.125 0 2 C0 1.34 0 0.68 0 0 Z " fill="#3A3A3A" transform="translate(30,143)"/>
<path d="M0 0 C3.73487777 0.4979837 5.81237635 0.87491756 9 3 C8.01 3.66 7.02 4.32 6 5 C3.98079663 3.69593116 1.98075027 2.36176581 0 1 C0 0.67 0 0.34 0 0 Z " fill="#282828" transform="translate(311,89)"/>
<path d="M0 0 C2 1 2 1 3 3 C-0.08809695 4.76462683 -1.23312136 5 -5 5 C-5 4.34 -5 3.68 -5 3 C-2.625 1.3125 -2.625 1.3125 0 0 Z " fill="#272727" transform="translate(294,246)"/>
<path d="M0 0 C6.75 0.75 6.75 0.75 9 3 C7.3125 3.6875 7.3125 3.6875 5 4 C2.25 2.625 2.25 2.625 0 1 C0 0.67 0 0.34 0 0 Z " fill="#303030" transform="translate(97,217)"/>
<path d="M0 0 C5.75 1.75 5.75 1.75 8 4 C5 5 5 5 1.8125 3.5625 C0.884375 3.046875 -0.04375 2.53125 -1 2 C-0.67 1.34 -0.34 0.68 0 0 Z " fill="#323232" transform="translate(106,209)"/>
<path d="M0 0 C3.65316671 1.24976756 4.78065836 1.67098753 7 5 C6.34 5.66 5.68 6.32 5 7 C5 6.34 5 5.68 5 5 C4.360625 4.731875 3.72125 4.46375 3.0625 4.1875 C1 3 1 3 0 0 Z " fill="#1D1D1D" transform="translate(272,45)"/>
<path d="M0 0 C0 0.66 0 1.32 0 2 C-2.64 2.33 -5.28 2.66 -8 3 C-8 2.34 -8 1.68 -8 1 C-2.25 -1.125 -2.25 -1.125 0 0 Z " fill="#373737" transform="translate(276,238)"/>
<path d="M0 0 C5.75 0.875 5.75 0.875 8 2 C8 2.66 8 3.32 8 4 C2.25 3.125 2.25 3.125 0 2 C0 1.34 0 0.68 0 0 Z " fill="#202020" transform="translate(105,220)"/>
<path d="M0 0 C-2.35277269 2.72426311 -4.62496331 3.8141763 -8 5 C-8 4.01 -8 3.02 -8 2 C-4.77208445 -0.1519437 -3.71599191 -0.20086443 0 0 Z " fill="#242424" transform="translate(117,35)"/>
<path d="M0 0 C0.99 0 1.98 0 3 0 C2.25 1.9375 2.25 1.9375 1 4 C-1.125 4.75 -1.125 4.75 -3 5 C-1.125 1.125 -1.125 1.125 0 0 Z " fill="#393939" transform="translate(319,121)"/>
<path d="M0 0 C1.125 1.6875 1.125 1.6875 2 4 C1.125 6.75 1.125 6.75 0 9 C-0.99 8.34 -1.98 7.68 -3 7 C-2.01 4.69 -1.02 2.38 0 0 Z " fill="#BABABA" transform="translate(335,120)"/>
<path d="M0 0 C0.99 0.33 1.98 0.66 3 1 C1.37660195 2.70884005 -0.29319053 4.37446717 -2 6 C-2.66 6 -3.32 6 -4 6 C-2.84826645 3.53199953 -1.95216435 1.95216435 0 0 Z " fill="#212121" transform="translate(99,55)"/>
<path d="M0 0 C0.33 0 0.66 0 1 0 C1 3.96 1 7.92 1 12 C0.67 12 0.34 12 0 12 C0 8.04 0 4.08 0 0 Z " fill="#000000" transform="translate(335,229)"/>
<path d="M0 0 C0.33 0 0.66 0 1 0 C1 2.97 1 5.94 1 9 C0.67 9 0.34 9 0 9 C0 6.03 0 3.06 0 0 Z " fill="#000000" transform="translate(336,242)"/>
<path d="M0 0 C2.31 0 4.62 0 7 0 C7 0.33 7 0.66 7 1 C4.69 1 2.38 1 0 1 C0 0.67 0 0.34 0 0 Z " fill="#000000" transform="translate(228,4)"/>
<path d="M0 0 C3 1 3 1 3 1 Z " fill="#000000" transform="translate(219,283)"/>
<path d="" fill="#000000" transform="translate(0,0)"/>
<path d="" fill="#000000" transform="translate(0,0)"/>
<path d="" fill="#000000" transform="translate(0,0)"/>
</svg>
